PathFileType	4	(X/Y/Z)	D:\TRACE\spotREDO_2-26-24\spot_baseline_1-platform.trc
DataRate	CameraRate	NumFrames	NumMarkers	Units	OrigDataRate	OrigDataStartFrame	OrigNumFrames
100.00	100.00	      43	5	mm	100.00	3501	      7000
Frame#	Time	Left_Front			Right_Front			Left_Aft			Right_Aft			Post			
		X1	Y1	Z1	X2	Y2	Z2	X3	Y3	Z3	X4	Y4	Z4	X5	Y5	Z5	

3501	35.000	-696.89307	-3.88416	-575.71075	718.31622	4.98008	-490.73709	-768.15894	4.78355	643.59180	801.21521	11.37936	647.80054	4.40781	741.37018	-982.83783	
3502	35.010	-696.88159	-3.88028	-575.68744	718.19409	5.16875	-490.86844	-768.11737	4.78034	643.56879	801.28577	11.40431	647.80115	4.43994	741.38507	-982.85840	
3503	35.020	-696.85626	-3.87004	-575.68011	718.29071	5.01522	-490.76178	-768.12189	4.78747	643.54370	801.23590	11.40653	647.83014	4.41361	741.39575	-982.83789	
3504	35.030	-696.87207	-3.89190	-575.67090	718.19061	5.23438	-490.90555	-768.18982	4.78799	643.57434	801.30096	11.42078	647.81549	4.41520	741.39020	-982.83319	
3505	35.040	-696.87024	-3.91112	-575.67865	718.24359	5.00715	-490.77283	-768.18353	4.78274	643.57074	801.19244	11.35727	647.80090	4.43869	741.39685	-982.83887	
3506	35.050	-696.88745	-3.89134	-575.67871	718.17621	5.17770	-490.86987	-768.15454	4.76915	643.58105	801.31512	11.38128	647.80353	4.46190	741.36658	-982.85468	
3507	35.060	-696.87012	-3.87619	-575.68054	718.25031	5.23357	-490.78574	-768.16241	4.76555	643.58246	801.20013	11.34228	647.81201	4.43240	741.43060	-982.83350	
3508	35.070	-696.87305	-3.91981	-575.69537	718.32269	5.09936	-490.77505	-768.13672	4.78731	643.59113	801.31244	11.43843	647.81879	4.45959	741.40417	-982.90210	
3509	35.080	-696.86053	-3.87950	-575.68213	718.39209	5.15273	-490.74515	-768.20172	4.81657	643.60968	801.25854	11.39227	647.80872	4.44975	741.38715	-982.87366	
3510	35.090	-696.86829	-3.88976	-575.66956	718.37024	5.21667	-490.84842	-768.18567	4.78387	643.57233	801.21045	11.35253	647.78809	4.45986	741.39667	-982.86163	
3511	35.100	-696.87299	-3.89941	-575.69360	718.08875	5.12838	-490.93265	-768.16943	4.77599	643.55920	801.23560	11.37633	647.80878	4.44189	741.35596	-982.88690	
3512	35.110	-696.85760	-3.95338	-575.67401	718.17731	4.90215	-490.77048	-768.11871	4.79562	643.56738	801.31110	11.45281	647.82391	4.46049	741.37158	-982.89423	
3513	35.120	-696.89362	-3.89686	-575.69928	718.24054	4.91295	-490.77701	-768.15314	4.78998	643.57520	801.25427	11.42331	647.83417	4.45231	741.37280	-982.87061	
3514	35.130	-696.88525	-3.88158	-575.66327	718.11932	5.05553	-490.89423	-768.18683	4.78672	643.57947	801.29504	11.40619	647.79150	4.43208	741.37476	-982.87769	
3515	35.140	-696.86914	-3.89213	-575.69012	718.09930	5.14368	-490.88461	-768.12811	4.76354	643.60724	801.18085	11.39235	647.82135	4.45048	741.38940	-982.87592	
3516	35.150	-696.90308	-3.89877	-575.66949	718.10864	5.12938	-490.94983	-768.13403	4.74542	643.60980	801.18353	11.33385	647.81531	4.46779	741.38922	-982.87799	
3517	35.160	-696.90369	-3.89452	-575.66058	718.20868	4.91165	-490.80722	-768.16223	4.76052	643.57629	801.27051	11.37001	647.80823	4.43237	741.40875	-982.83875	
3518	35.170	-696.89301	-3.88134	-575.68628	718.17657	4.89771	-490.80878	-768.15607	4.74621	643.60095	801.33270	11.43718	647.83301	4.46694	741.38922	-982.85474	
3519	35.180	-696.88678	-3.90653	-575.66968	718.21613	4.92202	-490.79752	-768.14661	4.78013	643.58325	801.33844	11.15480	647.50092	4.41012	741.39575	-982.81122	
3520	35.190	-696.84998	-3.92819	-575.65869	718.25989	4.91578	-490.72382	-768.11493	4.78256	643.58868	801.24237	11.35874	647.78754	4.47057	741.35590	-982.81171	
3521	35.200	-696.86774	-3.90362	-575.66449	718.21344	4.84171	-490.78198	-768.14032	4.80960	643.59998	801.14337	11.34547	647.80902	4.44843	741.35980	-982.84613	
3522	35.210	-696.86731	-3.93394	-575.65631	718.25629	4.91203	-490.80435	-768.14850	4.77070	643.59546	801.24310	11.39974	647.83398	4.46916	741.36066	-982.85724	
3523	35.220	-696.89868	-3.88786	-575.67291	718.22021	4.90613	-490.78421	-768.13403	4.79257	643.56989	801.33667	11.47750	647.86804	4.43512	741.36920	-982.88074	
3524	35.230	-696.89105	-3.86779	-575.65826	718.21063	4.90648	-490.77908	-768.14044	4.75341	643.56122	801.26099	11.39600	647.81641	4.42755	741.38031	-982.91290	
3525	35.240	-696.89124	-3.88901	-575.66644	718.24774	4.95004	-490.74847	-768.11798	4.78950	643.56848	801.30713	11.40453	647.82202	4.46177	741.41180	-982.91382	
3526	35.250	-696.89520	-3.88137	-575.65106	718.22351	4.90312	-490.76657	-768.15228	4.78886	643.58887	801.23096	11.40548	647.81116	4.44839	741.40015	-982.88983	
3527	35.260	-696.87762	-3.87175	-575.67352	718.19061	4.93510	-490.77390	-768.11853	4.76418	643.55243	801.32971	11.46675	647.83984	4.41844	741.42584	-982.84863	
3528	35.270	-696.86108	-3.88408	-575.67017	718.23724	4.92030	-490.76593	-768.12408	4.75667	643.53967	801.20691	11.36979	647.81104	4.42350	741.41382	-982.84088	
3529	35.280	-696.89319	-3.86808	-575.66876	718.23114	4.90472	-490.76785	-768.12555	4.77182	643.51147	801.22491	11.42464	647.82190	4.40519	741.39276	-982.81000	
3530	35.290	-696.86224	-3.90667	-575.68689	718.21539	4.91005	-490.77826	-768.09424	4.74302	643.51624	801.23267	11.40237	647.80792	4.39323	741.42273	-982.77240	
3531	35.300	-696.87451	-3.87625	-575.68982	718.23608	4.88865	-490.76190	-768.08557	4.72538	643.48956	801.32220	11.46594	647.83124	4.39537	741.40253	-982.77441	
3532	35.310	-696.89136	-3.89428	-575.65631	718.07275	5.15968	-490.94589	-768.02502	4.66787	643.52301	801.14618	11.34501	647.80804	4.41882	741.39447	-982.77313	
3533	35.320	-696.87299	-3.91062	-575.67993	718.19775	4.90292	-490.81412	-767.96283	4.63504	643.46558	801.28265	11.38165	647.78967	4.44092	741.39697	-982.80682	
3534	35.330	-696.88617	-3.93983	-575.63635	718.21417	4.94571	-490.79501	-768.07184	4.80928	643.47125	801.24695	11.40454	647.80438	4.47173	741.38544	-982.88031	
3535	35.340	-696.87115	-3.91116	-575.65436	718.09326	5.14546	-490.96378	-768.05231	4.84951	643.49420	801.26764	11.45626	647.83966	4.42526	741.41034	-982.84338	
3536	35.350	-696.91132	-3.88012	-575.66370	718.25555	4.91995	-490.76758	-768.13226	4.86740	643.49554	801.21619	11.32047	647.78387	4.44715	741.40698	-982.87195	
3537	35.360	-696.86377	-3.90368	-575.67438	718.23572	4.95869	-490.78430	-768.09271	4.81995	643.47260	801.23419	11.03739	647.51892	4.47690	741.41534	-982.84424	
3538	35.370	-696.81879	-3.93812	-575.68207	718.23163	4.94681	-490.78769	-768.09387	4.74399	643.47467	801.24109	10.94855	647.43823	4.48640	741.38861	-982.88519	
3539	35.380	-696.85974	-3.90394	-575.66687	718.25714	4.93343	-490.74750	-768.13269	4.77545	643.47723	801.36603	11.16414	647.51050	4.38866	741.41998	-982.77063	
3540	35.390	-696.87891	-3.93054	-575.68225	718.15424	4.89041	-490.80862	-768.11987	4.85459	643.46899	801.22266	11.37448	647.77704	4.36019	741.44696	-982.76031	
3541	35.400	-696.85773	-3.91518	-575.67456	718.20129	4.92628	-490.77322	-768.07526	4.84871	643.48792	801.30298	11.48997	647.83173	4.33540	741.42291	-982.70728	
3542	35.410	-696.84711	-3.94306	-575.66632	718.11542	5.23043	-490.99542	-768.13409	4.83387	643.48419	801.29199	11.40989	647.79248	4.44655	741.39453	-982.74847	
3543	35.420	-696.85779	-3.92303	-575.68182	718.10706	5.17100	-490.92923	-768.09521	4.78840	643.45581	801.20135	11.38489	647.82477	4.38738	741.40503	-982.78076	
